<svg id="markup-graph-6" width="1174.631591796875" xmlns="http://www.w3.org/2000/svg" xmlns:xlink="http://www.w3.org/1999/xlink" height="354" viewBox="-20 -20 1174.631591796875 354"><style>#markup-graph-6{font-family:"trebuchet ms",verdana,arial;font-size:16px;fill:#333;}#markup-graph-6 .error-icon{fill:#552222;}#markup-graph-6 .error-text{fill:#552222;stroke:#552222;}#markup-graph-6 .edge-thickness-normal{stroke-width:2px;}#markup-graph-6 .edge-thickness-thick{stroke-width:3.5px;}#markup-graph-6 .edge-pattern-solid{stroke-dasharray:0;}#markup-graph-6 .edge-pattern-dashed{stroke-dasharray:3;}#markup-graph-6 .edge-pattern-dotted{stroke-dasharray:2;}#markup-graph-6 .marker{fill:#333333;}#markup-graph-6 .marker.cross{stroke:#333333;}#markup-graph-6 svg{font-family:"trebuchet ms",verdana,arial;font-size:16px;}#markup-graph-6 g.classGroup text{fill:#9370DB;fill:#131300;stroke:none;font-family:"trebuchet ms",verdana,arial;font-size:10px;}#markup-graph-6 g.classGroup text .title{font-weight:bolder;}#markup-graph-6 .node rect,#markup-graph-6 .node circle,#markup-graph-6 .node ellipse,#markup-graph-6 .node polygon,#markup-graph-6 .node path{fill:#ECECFF;stroke:#9370DB;stroke-width:1px;}#markup-graph-6 .divider{stroke:#9370DB;stroke:1;}#markup-graph-6 g.clickable{cursor:pointer;}#markup-graph-6 g.classGroup rect{fill:#ECECFF;stroke:#9370DB;}#markup-graph-6 g.classGroup line{stroke:#9370DB;stroke-width:1;}#markup-graph-6 .classLabel .box{stroke:none;stroke-width:0;fill:#ECECFF;opacity:0.5;}#markup-graph-6 .classLabel .label{fill:#9370DB;font-size:10px;}#markup-graph-6 .relation{stroke:#333333;stroke-width:1;fill:none;}#markup-graph-6 .dashed-line{stroke-dasharray:3;}#markup-graph-6 #compositionStart,#markup-graph-6 .composition{fill:#333333 !important;stroke:#333333 !important;stroke-width:1;}#markup-graph-6 #compositionEnd,#markup-graph-6 .composition{fill:#333333 !important;stroke:#333333 !important;stroke-width:1;}#markup-graph-6 #dependencyStart,#markup-graph-6 .dependency{fill:#333333 !important;stroke:#333333 !important;stroke-width:1;}#markup-graph-6 #dependencyStart,#markup-graph-6 .dependency{fill:#333333 !important;stroke:#333333 !important;stroke-width:1;}#markup-graph-6 #extensionStart,#markup-graph-6 .extension{fill:#333333 !important;stroke:#333333 !important;stroke-width:1;}#markup-graph-6 #extensionEnd,#markup-graph-6 .extension{fill:#333333 !important;stroke:#333333 !important;stroke-width:1;}#markup-graph-6 #aggregationStart,#markup-graph-6 .aggregation{fill:#ECECFF !important;stroke:#333333 !important;stroke-width:1;}#markup-graph-6 #aggregationEnd,#markup-graph-6 .aggregation{fill:#ECECFF !important;stroke:#333333 !important;stroke-width:1;}#markup-graph-6:root{--mermaid-font-family:"trebuchet ms",verdana,arial;}#markup-graph-6 class{fill:apa;}</style><g></g><defs><marker id="extensionStart" class="extension" refX="0" refY="7" markerWidth="190" markerHeight="240" orient="auto"><path d="M 1,7 L18,13 V 1 Z"></path></marker></defs><defs><marker id="extensionEnd" refX="19" refY="7" markerWidth="20" markerHeight="28" orient="auto"><path d="M 1,1 V 13 L18,7 Z"></path></marker></defs><defs><marker id="compositionStart" class="extension" refX="0" refY="7" markerWidth="190" markerHeight="240" orient="auto"><path d="M 18,7 L9,13 L1,7 L9,1 Z"></path></marker></defs><defs><marker id="compositionEnd" refX="19" refY="7" markerWidth="20" markerHeight="28" orient="auto"><path d="M 18,7 L9,13 L1,7 L9,1 Z"></path></marker></defs><defs><marker id="aggregationStart" class="extension" refX="0" refY="7" markerWidth="190" markerHeight="240" orient="auto"><path d="M 18,7 L9,13 L1,7 L9,1 Z"></path></marker></defs><defs><marker id="aggregationEnd" refX="19" refY="7" markerWidth="20" markerHeight="28" orient="auto"><path d="M 18,7 L9,13 L1,7 L9,1 Z"></path></marker></defs><defs><marker id="dependencyStart" class="extension" refX="0" refY="7" markerWidth="190" markerHeight="240" orient="auto"><path d="M 5,7 L9,13 L1,7 L9,1 Z"></path></marker></defs><defs><marker id="dependencyEnd" refX="19" refY="7" markerWidth="20" markerHeight="28" orient="auto"><path d="M 18,7 L9,13 L14,7 L9,1 Z"></path></marker></defs><g id="classid-Observation-40" class="classGroup" transform="translate(58.61979103088379,80.66666793823242 )"><rect x="0" y="0" width="97.56673431396484" height="72.00000381469727" class=" clickable"></rect><a xlink:href="http://purl.org/linked-data/cube#Observation" target="_blank"><text y="15" x="0"><tspan class="title" x="19.60628318786621">Observation</tspan><title>tooltip</title></text></a><line x1="0" y1="21.33333396911621" y2="21.33333396911621" x2="97.56673431396484"></line><text x="5" y="31.33333396911621" fill="white" class="classText"><tspan x="5">+petalLength float</tspan><tspan x="5" dy="10">+petalWidth float</tspan><tspan x="5" dy="10">+sepalLength float</tspan><tspan x="5" dy="10">+sepalWidth float</tspan></text><line x1="0" y1="67.66666984558105" y2="67.66666984558105" x2="97.56673431396484"></line><text x="5" y="82.66666984558105" fill="white" class="classText"></text></g><g id="classid-Attachable-41" class="classGroup" transform="translate(76.84065818786621,0 )"><rect x="0" y="0" width="61.125" height="30.666667938232422" class=" "></rect><text y="15" x="0"><tspan class="title" x="5">Attachable</tspan></text><line x1="0" y1="21.33333396911621" y2="21.33333396911621" x2="61.125"></line><text x="5" y="31.33333396911621" fill="white" class="classText"></text><line x1="0" y1="26.33333396911621" y2="26.33333396911621" x2="61.125"></line><text x="5" y="41.33333396911621" fill="white" class="classText"></text></g><g id="classid-DataSet-42" class="classGroup" transform="translate(0,202.6666717529297 )"><rect x="0" y="0" width="47.239585876464844" height="30.666667938232422" class=" "></rect><text y="15" x="0"><tspan class="title" x="4.999998092651367">DataSet</tspan></text><line x1="0" y1="21.33333396911621" y2="21.33333396911621" x2="47.23958206176758"></line><text x="5" y="31.33333396911621" fill="white" class="classText"></text><line x1="0" y1="26.33333396911621" y2="26.33333396911621" x2="47.23958206176758"></line><text x="5" y="41.33333396911621" fill="white" class="classText"></text></g><g id="classid-Slice-43" class="classGroup" transform="translate(213.3260908126831,101.33333587646484 )"><rect x="0" y="0" width="33.35416793823242" height="30.666667938232422" class=" "></rect><text y="15" x="0"><tspan class="title" x="5">Slice</tspan></text><line x1="0" y1="21.33333396911621" y2="21.33333396911621" x2="33.35416793823242"></line><text x="5" y="31.33333396911621" fill="white" class="classText"></text><line x1="0" y1="26.33333396911621" y2="26.33333396911621" x2="33.35416793823242"></line><text x="5" y="41.33333396911621" fill="white" class="classText"></text></g><g id="classid-CodedProperty-44" class="classGroup" transform="translate(889.8238925933838,202.6666717529297 )"><rect x="0" y="0" width="82.669921875" height="30.666667938232422" class=" "></rect><text y="15" x="0"><tspan class="title" x="5">CodedProperty</tspan></text><line x1="0" y1="21.33333396911621" y2="21.33333396911621" x2="82.669921875"></line><text x="5" y="31.33333396911621" fill="white" class="classText"></text><line x1="0" y1="26.33333396911621" y2="26.33333396911621" x2="82.669921875"></line><text x="5" y="41.33333396911621" fill="white" class="classText"></text></g><g id="classid-DimensionProperty-45" class="classGroup" transform="translate(956.1539707183838,283.3333396911621 )"><rect x="0" y="0" width="102.6796875" height="30.666667938232422" class=" "></rect><text y="15" x="0"><tspan class="title" x="5">DimensionProperty</tspan></text><line x1="0" y1="21.33333396911621" y2="21.33333396911621" x2="102.6796875"></line><text x="5" y="31.33333396911621" fill="white" class="classText"></text><line x1="0" y1="26.33333396911621" y2="26.33333396911621" x2="102.6796875"></line><text x="5" y="41.33333396911621" fill="white" class="classText"></text></g><g id="classid-ComponentProperty-46" class="classGroup" transform="translate(908.6325693130493,101.33333587646484 )"><rect x="0" y="0" width="107.1083984375" height="30.666667938232422" class=" "></rect><text y="15" x="0"><tspan class="title" x="5">ComponentProperty</tspan></text><line x1="0" y1="21.33333396911621" y2="21.33333396911621" x2="107.1083984375"></line><text x="5" y="31.33333396911621" fill="white" class="classText"></text><line x1="0" y1="26.33333396911621" y2="26.33333396911621" x2="107.1083984375"></line><text x="5" y="41.33333396911621" fill="white" class="classText"></text></g><g id="classid-AttributeProperty-47" class="classGroup" transform="translate(746.6022129058838,202.6666717529297 )"><rect x="0" y="0" width="93.2216796875" height="30.666667938232422" class=" "></rect><text y="15" x="0"><tspan class="title" x="5">AttributeProperty</tspan></text><line x1="0" y1="21.33333396911621" y2="21.33333396911621" x2="93.2216796875"></line><text x="5" y="31.33333396911621" fill="white" class="classText"></text><line x1="0" y1="26.33333396911621" y2="26.33333396911621" x2="93.2216796875"></line><text x="5" y="41.33333396911621" fill="white" class="classText"></text></g><g id="classid-MeasureProperty-48" class="classGroup" transform="translate(1042.4938144683838,202.6666717529297 )"><rect x="0" y="0" width="92.1376953125" height="30.666667938232422" class=" "></rect><text y="15" x="0"><tspan class="title" x="5">MeasureProperty</tspan></text><line x1="0" y1="21.33333396911621" y2="21.33333396911621" x2="92.1376953125"></line><text x="5" y="31.33333396911621" fill="white" class="classText"></text><line x1="0" y1="26.33333396911621" y2="26.33333396911621" x2="92.1376953125"></line><text x="5" y="41.33333396911621" fill="white" class="classText"></text></g><g id="classid-ComponentSet-49" class="classGroup" transform="translate(495.0344228744507,0 )"><rect x="0" y="0" width="81.11458587646484" height="30.666667938232422" class=" "></rect><text y="15" x="0"><tspan class="title" x="5">ComponentSet</tspan></text><line x1="0" y1="21.33333396911621" y2="21.33333396911621" x2="81.11458587646484"></line><text x="5" y="31.33333396911621" fill="white" class="classText"></text><line x1="0" y1="26.33333396911621" y2="26.33333396911621" x2="81.11458587646484"></line><text x="5" y="41.33333396911621" fill="white" class="classText"></text></g><g id="classid-ComponentSpecification-50" class="classGroup" transform="translate(303.81982421875,101.33333587646484 )"><rect x="0" y="0" width="127.79167175292969" height="30.666667938232422" class=" "></rect><text y="15" x="0"><tspan class="title" x="4.999996185302734">ComponentSpecification</tspan></text><line x1="0" y1="21.33333396911621" y2="21.33333396911621" x2="127.79166412353516"></line><text x="5" y="31.33333396911621" fill="white" class="classText"></text><line x1="0" y1="26.33333396911621" y2="26.33333396911621" x2="127.79166412353516"></line><text x="5" y="41.33333396911621" fill="white" class="classText"></text></g><g id="classid-DataStructureDefinition-51" class="classGroup" transform="translate(481.61148834228516,101.33333587646484 )"><rect x="0" y="0" width="122.23958587646484" height="30.666667938232422" class=" "></rect><text y="15" x="0"><tspan class="title" x="5">DataStructureDefinition</tspan></text><line x1="0" y1="21.33333396911621" y2="21.33333396911621" x2="122.23958587646484"></line><text x="5" y="31.33333396911621" fill="white" class="classText"></text><line x1="0" y1="26.33333396911621" y2="26.33333396911621" x2="122.23958587646484"></line><text x="5" y="41.33333396911621" fill="white" class="classText"></text></g><g id="classid-SliceKey-52" class="classGroup" transform="translate(653.85107421875,101.33333587646484 )"><rect x="0" y="0" width="52.1328125" height="30.666667938232422" class=" "></rect><text y="15" x="0"><tspan class="title" x="5">SliceKey</tspan></text><line x1="0" y1="21.33333396911621" y2="21.33333396911621" x2="52.1328125"></line><text x="5" y="31.33333396911621" fill="white" class="classText"></text><line x1="0" y1="26.33333396911621" y2="26.33333396911621" x2="52.1328125"></line><text x="5" y="41.33333396911621" fill="white" class="classText"></text></g><g id="classid-FloweringPlant-53" class="classGroup" transform="translate(316.7888193130493,202.6666717529297 )"><rect x="0" y="0" width="81.67708587646484" height="30.666667938232422" class=" "></rect><text y="15" x="0"><tspan class="title" x="5">FloweringPlant</tspan></text><line x1="0" y1="21.33333396911621" y2="21.33333396911621" x2="81.67708587646484"></line><text x="5" y="31.33333396911621" fill="white" class="classText"></text><line x1="0" y1="26.33333396911621" y2="26.33333396911621" x2="81.67708587646484"></line><text x="5" y="41.33333396911621" fill="white" class="classText"></text></g><g id="classid-Iris_setosa-54" class="classGroup" transform="translate(86.05599021911621,283.3333396911621 )"><rect x="0" y="0" width="62.6943359375" height="30.666667938232422" class=" "></rect><text y="15" x="0"><tspan class="title" x="5">Iris_setosa</tspan></text><line x1="0" y1="21.33333396911621" y2="21.33333396911621" x2="62.6943359375"></line><text x="5" y="31.33333396911621" fill="white" class="classText"></text><line x1="0" y1="26.33333396911621" y2="26.33333396911621" x2="62.6943359375"></line><text x="5" y="41.33333396911621" fill="white" class="classText"></text></g><g id="classid-Iris_versicolor-55" class="classGroup" transform="translate(356.30542278289795,283.3333396911621 )"><rect x="0" y="0" width="78.482421875" height="30.666667938232422" class=" "></rect><text y="15" x="0"><tspan class="title" x="5">Iris_versicolor</tspan></text><line x1="0" y1="21.33333396911621" y2="21.33333396911621" x2="78.482421875"></line><text x="5" y="31.33333396911621" fill="white" class="classText"></text><line x1="0" y1="26.33333396911621" y2="26.33333396911621" x2="78.482421875"></line><text x="5" y="41.33333396911621" fill="white" class="classText"></text></g><g id="classid-Iris_virginica-56" class="classGroup" transform="translate(484.78784465789795,283.3333396911621 )"><rect x="0" y="0" width="72.1376953125" height="30.666667938232422" class=" "></rect><text y="15" x="0"><tspan class="title" x="5">Iris_virginica</tspan></text><line x1="0" y1="21.33333396911621" y2="21.33333396911621" x2="72.1376953125"></line><text x="5" y="31.33333396911621" fill="white" class="classText"></text><line x1="0" y1="26.33333396911621" y2="26.33333396911621" x2="72.1376953125"></line><text x="5" y="41.33333396911621" fill="white" class="classText"></text></g><g id="classid-ObservationGroup-57" class="classGroup" transform="translate(190.82609272003174,0 )"><rect x="0" y="0" width="98.35417175292969" height="30.666667938232422" class=" "></rect><text y="15" x="0"><tspan class="title" x="4.999996185302734">ObservationGroup</tspan></text><line x1="0" y1="21.33333396911621" y2="21.33333396911621" x2="98.35416412353516"></line><text x="5" y="31.33333396911621" fill="white" class="classText"></text><line x1="0" y1="26.33333396911621" y2="26.33333396911621" x2="98.35416412353516"></line><text x="5" y="41.33333396911621" fill="white" class="classText"></text></g><g id="classid-Plant-58" class="classGroup" transform="translate(755.98388671875,101.33333587646484 )"><rect x="0" y="0" width="34.45833396911621" height="30.666667938232422" class=" "></rect><text y="15" x="0"><tspan class="title" x="4.999999046325684">Plant</tspan></text><line x1="0" y1="21.33333396911621" y2="21.33333396911621" x2="34.45833206176758"></line><text x="5" y="31.33333396911621" fill="white" class="classText"></text><line x1="0" y1="26.33333396911621" y2="26.33333396911621" x2="34.45833206176758"></line><text x="5" y="41.33333396911621" fill="white" class="classText"></text></g><g id="classid-Property-59" class="classGroup" transform="translate(936.4060068130493,0 )"><rect x="0" y="0" width="51.5615234375" height="30.666667938232422" class=" "></rect><text y="15" x="0"><tspan class="title" x="5">Property</tspan></text><line x1="0" y1="21.33333396911621" y2="21.33333396911621" x2="51.5615234375"></line><text x="5" y="31.33333396911621" fill="white" class="classText"></text><line x1="0" y1="26.33333396911621" y2="26.33333396911621" x2="51.5615234375"></line><text x="5" y="41.33333396911621" fill="white" class="classText"></text></g><path d="M76.84065818786621,30.04612913669958L67.97051366170247,34.31621893695505C59.100369135538735,38.58630873721052,41.360080083211265,47.126488337721476,32.489935557047524,61.56324512253506C23.61979103088379,76.00000190734863,23.61979103088379,96.33333587646484,23.61979103088379,116.66666984558105C23.61979103088379,137.00000381469727,23.61979103088379,157.33333778381348,23.61979103088379,171.66667143503824C23.61979103088379,186.00000508626303,23.61979103088379,194.33333841959634,23.61979103088379,198.50000508626303L23.61979103088379,202.6666717529297" id="edge22" class="relation" marker-start="url(#extensionStart)"></path><path d="M107.40315818786621,30.666667938232422L107.40315818786621,34.833334604899086C107.40315818786621,39.00000127156576,107.40315818786621,47.333334604899086,107.40315818786621,55.66666793823242C107.40315818786621,64.00000127156575,107.40315818786621,72.3333346048991,107.40315818786621,76.50000127156575L107.40315818786621,80.66666793823242" id="edge23" class="relation" marker-start="url(#extensionStart)"></path><path d="M133.15183964219437,30.666667938232422L140.14876366031456,34.833334604899086C147.14568767843477,39.00000127156576,161.13953571467513,47.333334604899086,174.98269046639828,59.11111259460449C188.82584521812143,70.88889058430989,202.5183066853273,86.11111323038737,209.36453741893027,93.7222245534261L216.21076815253323,101.33333587646484" id="edge24" class="relation" marker-start="url(#extensionStart)"></path><path d="M931.1588535308838,233.3333396911621L931.1588535308838,237.50000635782877C931.1588535308838,241.66667302449545,931.1588535308838,250.00000635782877,939.0446964786333,258.3333396911621C946.9305394263829,266.6666730244954,962.702225321882,275.0000063578288,970.5880682696315,279.1666730244954L978.4739112173812,283.3333396911621" id="edge25" class="relation" marker-start="url(#extensionStart)"></path><path d="M919.712500743648,132.00000381469727L898.6292594113123,139.611115137736C877.5460180789765,147.22222646077475,835.3795354143052,162.4444491068522,814.2962940819694,174.22222709655762C793.2130527496338,186.00000508626303,793.2130527496338,194.33333841959634,793.2130527496338,198.50000508626303L793.2130527496338,202.6666717529297" id="edge26" class="relation" marker-start="url(#extensionStart)"></path><path d="M954.3874018400243,132.00000381469727L950.5159771218341,139.611115137736C946.6445524036441,147.22222646077475,938.901702967264,162.4444491068522,935.0302782490738,174.22222709655762C931.1588535308838,186.00000508626303,931.1588535308838,194.33333841959634,931.1588535308838,198.50000508626303L931.1588535308838,202.6666717529297" id="edge27" class="relation" marker-start="url(#extensionStart)"></path><path d="M973.5754250035633,132.00000381469727L979.2284899143666,139.611115137736C984.8815548251702,147.22222646077475,996.187684646777,162.4444491068522,1001.8407495575804,176.777782758077C1007.4938144683838,191.11111640930176,1007.4938144683838,204.55556106567383,1007.4938144683838,218.0000057220459C1007.4938144683838,231.44445037841797,1007.4938144683838,244.88889503479004,1007.4938144683838,255.77778402964273C1007.4938144683838,266.6666730244954,1007.4938144683838,275.0000063578288,1007.4938144683838,279.1666730244954L1007.4938144683838,283.3333396911621" id="edge28" class="relation" marker-start="url(#extensionStart)"></path><path d="M993.9533869172815,132.00000381469727L1009.7215994518401,139.611115137736C1025.489811986399,147.22222646077475,1057.0262370555163,162.4444491068522,1072.794449590075,174.22222709655762C1088.5626621246338,186.00000508626303,1088.5626621246338,194.33333841959634,1088.5626621246338,198.50000508626303L1088.5626621246338,202.6666717529297" id="edge29" class="relation" marker-start="url(#extensionStart)"></path><path d="M495.0344228744507,25.07749192421511L473.8146284421285,30.17568792655133C452.59483400980633,35.27388392888755,410.1552451451619,45.47027593355998,388.9354507128398,58.17958325893494C367.7156562805176,70.88889058430989,367.7156562805176,86.11111323038737,367.7156562805176,93.7222245534261L367.7156562805176,101.33333587646484" id="edge30" class="relation" marker-start="url(#extensionStart)"></path><path d="M538.3059308536837,30.666667938232422L539.043489258156,34.833334604899086C539.7810476626283,39.00000127156576,541.2561644715729,47.333334604899086,541.9937228760452,59.11111259460449C542.7312812805176,70.88889058430989,542.7312812805176,86.11111323038737,542.7312812805176,93.7222245534261L542.7312812805176,101.33333587646484" id="edge31" class="relation" marker-start="url(#extensionStart)"></path><path d="M576.1490087509155,26.667490728023385L593.4437540372213,31.500686929724893C610.738499323527,36.3338831314264,645.3279898961385,46.000275534829406,662.6227351824442,58.44458305956965C679.91748046875,70.88889058430989,679.91748046875,86.11111323038737,679.91748046875,93.7222245534261L679.91748046875,101.33333587646484" id="edge32" class="relation" marker-start="url(#extensionStart)"></path><path d="M343.2117710743474,233.3333396911621L339.2944910256504,237.50000635782877C335.37721097695345,241.66667302449545,327.54265087955946,250.00000635782877,295.1324100599376,259.847286382783C262.72216924031574,269.6945664077372,205.73624769846597,281.05579312431234,177.2432869275411,286.7364064825999L148.7503261566162,292.41701984088746" id="edge33" class="relation" marker-start="url(#extensionStart)"></path><path d="M357.62736225128174,233.3333396911621L357.62736225128174,237.50000635782877C357.62736225128174,241.66667302449545,357.62736225128174,250.00000635782877,361.5446422999787,258.3333396911621C365.46192234867567,266.6666730244954,373.2964824460696,275.0000063578288,377.2137624947666,279.1666730244954L381.1310425434636,283.3333396911621" id="edge34" class="relation" marker-start="url(#extensionStart)"></path><path d="M385.248283189728,233.3333396911621L392.75396791613275,237.50000635782877C400.25965264253756,241.66667302449545,415.2710220953472,250.00000635782877,432.13355592694296,258.3333396911621C448.9960897585388,266.6666730244954,467.7097879689209,275.0000063578288,477.06663707411195,279.1666730244954L486.42348617930304,283.3333396911621" id="edge35" class="relation" marker-start="url(#extensionStart)"></path><path d="M76.77855737820352,152.6666717529297L73.23404358339876,156.83333841959634C69.68952978859402,161.00000508626303,62.60050219898451,169.33333841959634,55.761393045111994,177.6666717529297C48.92228389123949,186.00000508626303,42.33309317310398,194.33333841959634,39.038497814036226,198.50000508626303L35.74390245496848,202.6666717529297" id="edge36" class="relation" marker-end="url(#dependencyEnd)"></path><g class="classLabel"><rect class="box" x="36.080039978027344" y="165.4711151123047" width="40.027671813964844" height="16.33333396911621"></rect><text class="label" x="55.81961934959131" y="177.3044397256627" fill="red" text-anchor="middle">dataSet</text></g><g class="cardinality"><text class="type1" x="64.87076367737392" y="158.94794942379272" fill="black" font-size="6">1</text></g><g class="cardinality"><text class="type2" x="51.34101472468898" y="199.06388271584555" fill="black" font-size="6">0..</text></g><path d="M88.58183632302325,152.6666717529297L86.40344270408188,156.83333841959634C84.2250490851405,161.00000508626303,79.86826184725776,169.33333841959634,117.9027590122621,179.24913168600702C155.93725617726645,189.1649249524177,236.36303774515787,200.66317815190573,276.5759285291036,206.4123047516497L316.7888193130493,212.16143135139373" id="edge37" class="relation" marker-end="url(#dependencyEnd)"></path><g class="classLabel"><rect class="box" x="164.9576873779297" y="181.08444213867188" width="34.78645896911621" height="16.33333396911621"></rect><text class="label" x="182.1868592591573" y="192.91775864253054" fill="red" text-anchor="middle">variety</text></g><g class="cardinality"><text class="type1" x="78.35943151303042" y="161.4275187382751" fill="black" font-size="6">1</text></g><g class="cardinality"><text class="type2" x="305.82992325891763" y="200.49298684174562" fill="black" font-size="6">0..</text></g><path d="M107.40315818786621,152.6666717529297L107.40315818786621,156.83333841959634C107.40315818786621,161.00000508626303,107.40315818786621,169.33333841959634,107.40315818786621,180.22222741444907C107.40315818786621,191.11111640930176,107.40315818786621,204.55556106567383,107.40315818786621,218.0000057220459C107.40315818786621,231.44445037841797,107.40315818786621,244.88889503479004,108.43621602282157,255.77778402964273C109.46927385777694,266.6666730244954,111.53538952768766,275.0000063578288,112.56844736264303,279.1666730244954L113.60150519759837,283.3333396911621" id="edge38" class="relation" marker-start="url(#extensionStart)"></path><path d="M156.18652534484863,124.91444651258756L208.18904829025269,133.70648405264458C260.19157123565674,142.49852159270162,364.19661712646484,160.08259667281564,416.1991400718689,175.5968565410587C468.20166301727295,191.11111640930176,468.20166301727295,204.55556106567383,468.20166301727295,218.0000057220459C468.20166301727295,231.44445037841797,468.20166301727295,244.88889503479004,460.69597829086814,255.77778402964273C453.1902935644634,266.6666730244954,438.17892411165377,275.0000063578288,430.67323938524896,279.1666730244954L423.1675546588442,283.3333396911621" id="edge39" class="relation" marker-start="url(#extensionStart)"></path><path d="M156.18652534484863,123.53196279012042L220.29821983973184,132.55441428392194C284.40991433461505,141.5768657777235,412.63330332438153,159.6217687653266,476.7449978192647,175.36644258731417C540.856692314148,191.11111640930176,540.856692314148,204.55556106567383,540.856692314148,218.0000057220459C540.856692314148,231.44445037841797,540.856692314148,244.88889503479004,538.7905766442373,255.77778402964273C536.7244609743265,266.6666730244954,532.5922296345051,275.0000063578288,530.5261139645944,279.1666730244954L528.4599982946836,283.3333396911621" id="edge40" class="relation" marker-start="url(#extensionStart)"></path><path d="M240.00317478179932,30.666667938232422L240.00317478179932,34.833334604899086C240.00317478179932,39.00000127156576,240.00317478179932,47.333334604899086,238.75545165310186,59.11111259460449C237.50772852440443,70.88889058430989,235.0122822670095,86.11111323038737,233.76455913831205,93.7222245534261L232.51683600961462,101.33333587646484" id="edge41" class="relation" marker-start="url(#extensionStart)"></path><path d="M773.2130527496338,132.00000381469727L773.2130527496338,139.611115137736C773.2130527496338,147.22222646077475,773.2130527496338,162.4444491068522,710.7551948229471,176.1172071620771C648.2973368962606,189.789965217302,523.3816210428873,201.9132586816743,460.92376311620075,207.97490541386048L398.46590518951416,214.03655214604663" id="edge42" class="relation" marker-start="url(#extensionStart)"></path><path d="M962.1867685317993,30.666667938232422L962.1867685317993,34.833334604899086C962.1867685317993,39.00000127156576,962.1867685317993,47.333334604899086,962.1867685317993,59.11111259460449C962.1867685317993,70.88889058430989,962.1867685317993,86.11111323038737,962.1867685317993,93.7222245534261L962.1867685317993,101.33333587646484" id="edge43" class="relation" marker-start="url(#extensionStart)"></path></svg>